<?xml version="1.0" encoding="utf-8"?><!-- Uploaded to: SVG Repo, www.svgrepo.com, Generator: SVG Repo Mixer Tools -->
<svg fill="#000000" width="800px" height="800px" viewBox="0 0 1024 1024" xmlns="http://www.w3.org/2000/svg"><path d="M829.44 911.36c45.245 0 81.92-36.675 81.92-81.92V194.56c0-45.245-36.675-81.92-81.92-81.92H194.56c-45.245 0-81.92 36.675-81.92 81.92v634.88c0 45.245 36.675 81.92 81.92 81.92h634.88zm0 40.96H194.56c-67.866 0-122.88-55.014-122.88-122.88V194.56c0-67.866 55.014-122.88 122.88-122.88h634.88c67.866 0 122.88 55.014 122.88 122.88v634.88c0 67.866-55.014 122.88-122.88 122.88z"/><path d="M727.746 234.526l-.358.247c.12-.078.239-.16.358-.247zm-304.56 198.992l53.506 34.806c9.143 5.947 12.02 18.016 6.545 27.449L322.853 772.067l277.96-181.589-53.507-34.807c-9.143-5.947-12.02-18.016-6.545-27.449l160.378-276.284-277.953 181.579zm14.854 58.527l-63.524-41.323c-12.402-8.068-12.42-26.221-.033-34.313L704.13 201.06c29.158-20.549 66.411 12.954 48.276 44.151l-166.448 286.74 63.524 41.323c12.402 8.068 12.42 26.221.034 34.313L319.883 822.934c-29.153 20.564-66.398-12.925-48.29-44.148l166.448-286.74z"/></svg>