<!DOCTYPE svg PUBLIC "-//W3C//DTD SVG 1.1//EN" "http://www.w3.org/Graphics/SVG/1.1/DTD/svg11.dtd">
<!-- Uploaded to: SVG Repo, www.svgrepo.com, Transformed by: SVG Repo Mixer Tools -->
<svg version="1.1" id="Layer_1" xmlns:sketch="http://www.bohemiancoding.com/sketch/ns" xmlns="http://www.w3.org/2000/svg" xmlns:xlink="http://www.w3.org/1999/xlink" width="800px" height="800px" viewBox="0 0 64 64" enable-background="new 0 0 64 64" xml:space="preserve" fill="#000000">
<g id="SVGRepo_bgCarrier" stroke-width="0"/>
<g id="SVGRepo_tracerCarrier" stroke-linecap="round" stroke-linejoin="round"/>
<g id="SVGRepo_iconCarrier"> <title>House-$</title> <desc>Created with Sketch.</desc> <g id="Page-1" sketch:type="MSPage"> <g id="House-_x24_" transform="translate(1.000000, 2.000000)" sketch:type="MSLayerGroup"> <path id="Shape" sketch:type="MSShapeGroup" fill="none" stroke="#000000" stroke-width="2" stroke-linejoin="round" d="M32.2,51 H10c-1.1,0-2-0.9-2-2V25H0c0-1.1,0-2,1-3L28,0l9,8.1V6c0-1.1,0.9-2,2-2h5c1.1,0,2,0.9,2,2v9.1l9,6.9c1,1,1,1.9,1,3h-8v6.4"/> <circle id="Oval" sketch:type="MSShapeGroup" fill="none" stroke="#000000" stroke-width="2" cx="47" cy="46" r="15"> </circle> <path id="Shape_1_" sketch:type="MSShapeGroup" fill="none" stroke="#000000" stroke-width="2" d="M43,50.2c0,2,1.8,3.7,4,3.7 s4-1.7,4-3.7c0-3-4-4.4-4-4.4s-4-1.5-4-4.4c0-2,1.8-3.7,4-3.7s4,1.7,4,3.7"/> <path id="Shape_2_" sketch:type="MSShapeGroup" fill="none" stroke="#000000" stroke-width="2" d="M47,35v22"/> </g> </g> </g>
</svg>