<?xml version="1.0" encoding="utf-8"?><!-- Uploaded to: SVG Repo, www.svgrepo.com, Generator: SVG Repo Mixer Tools -->
<svg width="800px" height="800px" viewBox="0 0 24 24" fill="none" xmlns="http://www.w3.org/2000/svg">
<path d="M17.3 9.6C17.6314 9.15817 17.5418 8.53137 17.1 8.2C16.6582 7.86863 16.0314 7.95817 15.7 8.4L13.3918 11.4776L11.2071 9.29289C11.0021 9.08791 10.7183 8.98197 10.4291 9.00252C10.1399 9.02307 9.87393 9.16809 9.7 9.4L6.7 13.4C6.36863 13.8418 6.45817 14.4686 6.9 14.8C7.34183 15.1314 7.96863 15.0418 8.3 14.6L10.6082 11.5224L12.7929 13.7071C12.9979 13.9121 13.2817 14.018 13.5709 13.9975C13.8601 13.9769 14.1261 13.8319 14.3 13.6L17.3 9.6Z" fill="#0F0F0F"/>
<path fill-rule="evenodd" clip-rule="evenodd" d="M12 23C10.7764 23 10.0994 22.8687 9 22.5L6.89443 23.5528C5.56462 24.2177 4 23.2507 4 21.7639V19.5C1.84655 17.492 1 15.1767 1 12C1 5.92487 5.92487 1 12 1C18.0751 1 23 5.92487 23 12C23 18.0751 18.0751 23 12 23ZM6 18.6303L5.36395 18.0372C3.69087 16.4772 3 14.7331 3 12C3 7.02944 7.02944 3 12 3C16.9706 3 21 7.02944 21 12C21 16.9706 16.9706 21 12 21C11.0143 21 10.552 20.911 9.63595 20.6038L8.84847 20.3397L6 21.7639V18.6303Z" fill="#0F0F0F"/>
</svg>